<svg width="36" height="48" viewBox="0 0 36 48" fill="none" xmlns="http://www.w3.org/2000/svg">
<path d="M1.44172 42.5C2.44172 39 2.94171 39 4.44171 37.5C7.24171 35.1 9.27504 33.1667 9.94171 32.5L10.9417 31L11.9417 28.5V26V24.5H9.44171H7.44171V23V21C7.27504 21 7.04171 20.9 7.44171 20.5C7.94171 20 7.94171 21.5 8.44171 20.5C8.94171 19.5 8.94171 20 8.94171 19.5V19L9.44171 18.5L10.4417 18V17L10.9417 16L10.4417 14.5C9.94171 15 8.94171 15.6 8.94171 14V9L9.44171 7.5C9.44171 7.33333 9.64171 6.7 10.4417 5.5C11.4417 4 9.94171 5 11.4417 4C13.8417 2.4 15.1084 1.66667 15.4417 1.5L16.9417 1H18.4417L19.9417 1.5H21.4417C21.6084 1.66667 22.1417 2.1 22.9417 2.5C23.7417 2.9 24.9417 3.66667 25.4417 4C25.1084 4.33333 24.6417 5.1 25.4417 5.5C26.4417 6 26.9417 6 26.9417 7C26.9417 9 27.4417 9.5 26.9417 10.5C26.5417 11.3 26.4417 12.1667 26.4417 12.5V14V15L25.9417 15.5H25.4417H24.9417V16V16.5C24.4417 16.6667 23.7417 17.1 24.9417 17.5L26.4417 18L27.4417 19L28.4417 20V21L27.9417 22V23.5C28.275 23.6667 28.6417 24.1 27.4417 24.5C26.2417 24.9 25.275 24.6667 24.9417 24.5L24.4417 24.5C24.275 24.5 23.9417 24.7 23.9417 25.5V28L24.4417 29C24.6084 29.3333 24.9417 30.1 24.9417 30.5L28.4417 33C28.1084 33 27.6417 33.2 28.4417 34L30.4417 36L32.9417 38.5C33.1084 38.8333 33.6417 39.7 34.4417 40.5C35.2417 42.1 35.4417 43.1667 35.4417 43.5V45V46V47H30.9417H28.9417H17.9417H13.9417H10.4417H7.44171H3.94171H2.94171C2.77504 47.3333 2.3417 47.8 1.94171 47C1.57245 46.2614 1.38653 46.0145 1.32677 45.9717C1.32265 45.9697 1.31854 45.9675 1.31443 45.9651C1.01225 45.7945 0.740773 44.9533 1.44172 42.5Z" fill="#171414" fill-opacity="0.98"/>
<path d="M1.44172 46C1.40045 46 1.35713 45.9893 1.31443 45.9651M1.31443 45.9651C1.01225 45.7945 0.740773 44.9533 1.44172 42.5C2.44172 39 2.94171 39 4.44171 37.5C7.24171 35.1 9.27504 33.1667 9.94171 32.5L10.9417 31L11.9417 28.5V26V24.5H9.44171H7.44171V23V21C7.27504 21 7.04171 20.9 7.44171 20.5C7.94171 20 7.94171 21.5 8.44171 20.5C8.94171 19.5 8.94171 20 8.94171 19.5C8.94171 19.1 8.94171 19 8.94171 19L9.44171 18.5L10.4417 18V17L10.9417 16L10.4417 14.5C9.94171 15 8.94171 15.6 8.94171 14C8.94171 11.2 8.94171 9.5 8.94171 9L9.44171 7.5C9.44171 7.33333 9.64171 6.7 10.4417 5.5C11.4417 4 9.94171 5 11.4417 4C13.8417 2.4 15.1084 1.66667 15.4417 1.5L16.9417 1H18.4417L19.9417 1.5H21.4417C21.6084 1.66667 22.1417 2.1 22.9417 2.5C23.7417 2.9 24.9417 3.66667 25.4417 4C25.1084 4.33333 24.6417 5.1 25.4417 5.5C26.4417 6 26.9417 6 26.9417 7C26.9417 9 27.4417 9.5 26.9417 10.5C26.5417 11.3 26.4417 12.1667 26.4417 12.5V14V15L25.9417 15.5H25.4417H24.9417V16V16.5C24.4417 16.6667 23.7417 17.1 24.9417 17.5C26.1417 17.9 26.4417 18 26.4417 18L27.4417 19L28.4417 20V21L27.9417 22V23.5C28.275 23.6667 28.6417 24.1 27.4417 24.5C26.2417 24.9 25.275 24.6667 24.9417 24.5L24.4417 24.5C24.275 24.5 23.9417 24.7 23.9417 25.5C23.9417 26.3 23.9417 27.5 23.9417 28L24.4417 29C24.6084 29.3333 24.9417 30.1 24.9417 30.5C27.7417 32.5 28.4417 33 28.4417 33C28.1084 33 27.6417 33.2 28.4417 34C29.4417 35 28.9417 34.5 30.4417 36C31.6417 37.2 32.6084 38.1667 32.9417 38.5C33.1084 38.8333 33.6417 39.7 34.4417 40.5C35.2417 42.1 35.4417 43.1667 35.4417 43.5V45V46V47H30.9417H28.9417H17.9417H13.9417H10.4417H7.44171H3.94171H2.94171C2.77504 47.3333 2.3417 47.8 1.94171 47C1.54172 46.2 1.35686 45.9768 1.31443 45.9651Z" stroke="#E21313"/>
</svg>
