<svg width="55" height="54" viewBox="0 0 55 54" fill="none" xmlns="http://www.w3.org/2000/svg">
<path d="M6.66258 52.5L5.66258 53.5H5.1626L4.1626 53C3.82926 52.6667 2.86258 51.8 1.66258 51C0.462582 50.2 1.16258 50 1.66258 50C1.49592 49.5 1.16258 48.3 1.16258 47.5C1.16258 46.5 2.16258 46 10.1626 44C12.6626 44 12.6626 45 15.6626 45.5C18.0626 45.9 18.3292 46 18.1626 46C18.4959 46.1667 19.9626 46 23.1626 44C24.3626 43.2 23.6626 42.6667 23.1626 42.5C22.3292 42.5 19.8626 42.1 16.6626 40.5C15.8626 39.7 16.3292 39.8333 16.6626 40L17.1626 39V38C17.3292 37.6667 17.9626 36.7 19.1626 35.5C19.9626 35.1 19.8292 34.6667 19.6626 34.5L18.6626 33L18.1626 32.5L17.6626 31.5L16.6626 30.5C16.3292 30.1667 15.4626 29.4 14.6626 29C13.8626 28.6 13.9959 28.5 14.1626 28.5C14.1626 28 14.4626 26.2 15.6626 23C16.8626 21.4 17.4959 20.6667 17.6626 20.5L19.6626 18C20.3292 17.3333 22.2626 15.1 24.6626 11.5C25.0626 10.7 25.4959 10.1667 25.6626 10C25.9959 9.66667 27.0626 9.1 28.6626 9.5C29.8626 9.9 30.8292 11.3333 31.1626 12L33.6626 15.5L36.6626 19.5L40.1626 24.5L40.6626 27C40.3293 27.6667 38.8626 29.7 35.6626 32.5C34.1626 34 35.6626 33.5 36.6626 35C37.4626 36.2 36.9959 36.1667 36.6626 36L38.6626 40V41C38.1626 41.1667 36.7626 41.5 35.1626 41.5C33.5626 41.5 34.4959 42.1667 35.1626 42.5H32.1626H31.1626L32.1626 44L33.6626 45H35.1626H37.1626C38.1626 45 41.1626 44.8 45.1626 44H46.1626C47.1626 44 50.0626 44.9 53.6626 48.5C53.6626 49.5 52.6626 48.5 51.1626 51.5C50.1626 53 50.6626 52.5 49.1626 52.5C47.9626 52.5 47.9959 52.1667 48.1626 52C47.8293 51.5 46.2626 50.6 42.6626 51C40.6626 51.5 41.6626 52 31.6626 51.5C28.8626 51.1 29.8292 50.6667 30.6626 50.5L29.6626 50C28.8292 49.6667 25.4626 49.6 18.6626 52C15.8626 52 16.8292 51.6667 17.6626 51.5C16.8292 51.3334 13.4626 51.3 6.66258 52.5Z" fill="#171414" stroke="#D40D0D"/>
<path d="M25.1626 9.5C26.3626 9.9 26.9959 9.66667 27.1626 9.5H28.1626L30.1626 8.5C31.1626 8 31.1626 8.5 31.6626 7C32.0626 5.8 31.8293 5.83333 31.6626 6V3.5V2.5L31.1626 2C30.8293 1.83333 29.6626 1.4 27.6626 1H27.1626H25.1626C24.6626 1 24.1626 1.5 23.6626 1.5C23.2626 1.5 23.1626 2.16667 23.1626 2.5V7.5C23.1626 9.5 23.6626 9 25.1626 9.5Z" fill="#171414" stroke="#D40D0D"/>
</svg>
