<svg width="54" height="52" viewBox="0 0 54 52" fill="none" xmlns="http://www.w3.org/2000/svg">
<path d="M11.5 49C8.29996 48.2 8.16663 47.3333 8.49996 47L8 46V45L8.49996 44L9.5 43V37C8.7 35.4 8.49997 35.6667 8.49996 36C8.16664 35.6667 7.3 33.8 6.5 29C6.5 27 6 28 5 22.5C4.6 20.1 4.49998 18.8333 4.49997 18.5C4.33331 17.1667 4.09997 13.9 4.49997 11.5C4.99997 8.5 6.99997 14.5 11.5 24.5C13.4999 28.5 14.3333 28.5 14.5 28V24.5V19V9.5C14.5 5.49999 14.5 7.00001 16 7.50001C17.2 7.90001 17.5 9 17.5 9.5L18.5 13.5C18.3333 13.6667 18.5 15.6 20.5 22C21.3 25.6 22.1666 26.1667 22.5 26C22.8333 25.8333 23.7 24.2 24.5 19L25 17.5V16C25 15.1667 25.2 12.7 26 9.5C26.8 7.9 26.3333 6.50001 26 6.00001C26.3333 5.50001 27.3 5.00001 28.5 7.00001C29.5 9.50001 29 9.50001 30 13.5C30.8 16.7 30.6666 16.5 30.5 16C30.6666 17.6667 31.2 22 32 26C32.4 27.6 33.1666 25.6667 33.5 24.5L36.5 15.5C37.3 13.1 37.5 11.1667 37.5 10.5L38.5 7.00001L39.5 7.50001C39.6666 9.83334 40 16 40 22C40 28 40.3333 28.5 40.5 28C40.8333 27.5 42.9 23.9 48.5 13.5C49.5179 11.4642 49.6484 10.7236 49.5628 10.5457C49.5416 10.5254 49.5205 10.5103 49.5 10.5C49.5253 10.5 49.5475 10.5138 49.5628 10.5457C49.886 10.8546 50.2507 12.3712 49.5 16.5C48.5 20 49.5 19 49.5 23.5C49.5 28 49 27.5 48 32C47 36.5 47 34 46 35C45 36 44.5 36.5 44.5 43C45.0874 45.056 45.3513 45.6203 45.4501 45.643C45.4748 45.5915 45.4912 45.5438 45.5 45.5C45.5 45.5886 45.4859 45.6513 45.4501 45.643C45.0045 46.5719 41.8536 48.7261 32 51C28.8 51.8 29.3333 51.3333 30 51C29 50.8333 23.9 50.2 11.5 49Z" fill="#171414"/>
<path d="M8.49996 47C8.16663 47.3333 8.29996 48.2 11.5 49C23.9 50.2 29 50.8333 30 51C29.3333 51.3333 28.8 51.8 32 51C42.4 48.6 45.3333 46.3333 45.5 45.5C45.5 45.8333 45.3 45.8 44.5 43C44.5 36.5 45 36 46 35C47 34 47 36.5 48 32C49 27.5 49.5 28 49.5 23.5C49.5 19 48.5 20 49.5 16.5C50.3 12.1 49.8333 10.6667 49.5 10.5C49.6666 10.5 49.7 11.1 48.5 13.5C42.9 23.9 40.8333 27.5 40.5 28C40.3333 28.5 40 28 40 22C40 16 39.6666 9.83334 39.5 7.50001L38.5 7.00001L37.5 10.5C37.5 11.1667 37.3 13.1 36.5 15.5C34.5 21.5 33.6666 24 33.5 24.5C33.1666 25.6667 32.4 27.6 32 26C31.2 22 30.6666 17.6667 30.5 16C30.6666 16.5 30.8 16.7 30 13.5C29 9.50001 29.5 9.50001 28.5 7.00001C27.3 5.00001 26.3333 5.50001 26 6.00001C26.3333 6.50001 26.8 7.9 26 9.5C25.2 12.7 25 15.1667 25 16V17.5C25 17.5 24.9 17.8 24.5 19C23.7 24.2 22.8333 25.8333 22.5 26C22.1666 26.1667 21.3 25.6 20.5 22C18.5 15.6 18.3333 13.6667 18.5 13.5L17.5 9.5C17.5 9 17.2 7.90001 16 7.50001C14.5 7.00001 14.5 5.49999 14.5 9.5C14.5 12.7 14.5 17.1667 14.5 19V24.5V28C14.3333 28.5 13.4999 28.5 11.5 24.5C6.99997 14.5 4.99997 8.5 4.49997 11.5C4.09997 13.9 4.33331 17.1667 4.49997 18.5C4.49998 18.8333 4.6 20.1 5 22.5C6 28 6.5 27 6.5 29C7.3 33.8 8.16664 35.6667 8.49996 36C8.49997 35.6667 8.7 35.4 9.5 37C9.5 40.2 9.5 42.3333 9.5 43L8.49996 44L8 45V46L8.49996 47Z" stroke="#D40D0D"/>
<circle cx="3" cy="8" r="2.5" fill="#171414" stroke="#D40D0D"/>
<circle cx="15" cy="4" r="2.5" fill="#171414" stroke="#D40D0D"/>
<circle cx="27" cy="3" r="2.5" fill="#171414" stroke="#D40D0D"/>
<circle cx="39" cy="4" r="2.5" fill="#171414" stroke="#D40D0D"/>
<circle cx="51" cy="8" r="2.5" fill="#171414" stroke="#D40D0D"/>
</svg>
