<svg width="51" height="54" viewBox="0 0 51 54" fill="none" xmlns="http://www.w3.org/2000/svg">
<path d="M19.4417 52.4417H15.9417L15.4417 51.9417V50.4417L16.4417 46.4417L16.9417 44.4417C17.4417 43.775 18.7417 42.1417 19.9417 40.9417C21.1417 39.7417 20.775 39.4417 20.4417 39.4417C21.1084 38.9417 22.7417 37.6417 23.9417 36.4417L24.9417 35.4417C25.275 34.6084 26.0417 32.1417 26.4417 28.9417V27.9417H25.4417C25.275 27.9417 24.7417 28.1417 23.9417 28.9417C23.1417 29.7417 23.275 29.275 23.4417 28.9417C22.775 29.275 21.0417 30.3417 19.4417 31.9417C17.8417 33.5417 17.775 33.275 17.9417 32.9417L16.9417 33.9417C16.4417 34.4417 15.1417 36.0417 13.9417 38.4417C13.5417 39.6417 12.775 39.275 12.4417 38.9417C11.9417 39.1084 9.54171 39.2417 3.94171 38.4417C1.94171 37.6417 2.44172 37.4417 2.94172 37.4417L1.44172 34.4417C0.641721 32.8417 1.10839 32.775 1.44172 32.9417L2.44172 29.9417L2.94172 28.9417C3.10839 28.6084 3.84172 27.3417 5.44172 24.9417C5.84172 23.7417 5.94172 24.1084 5.94172 24.4417C6.27505 23.9417 7.04172 22.7417 7.44172 21.9417C7.84172 21.1417 8.27505 20.6084 8.44172 20.4417L8.9417 18.9417C8.77503 18.4417 8.5417 17.0417 8.9417 15.4417C9.3417 13.8417 9.10836 13.775 8.9417 13.9417L9.4417 13.4417C9.77502 13.1084 10.5417 11.7417 10.9417 8.94172C10.9417 7.94179 10.9417 7.94171 10.4418 6.44198L10.4417 6.44171C10.0417 5.24171 10.275 5.27505 10.4417 5.44171C10.4417 4.77504 10.9417 3.14171 12.9417 1.94171C14.4417 2.44171 12.9417 2.44171 13.9417 3.44171C13.9417 4.44171 13.9417 3.44171 14.9417 3.94171C15.9417 4.44171 15.4417 4.44171 16.4417 4.44171C17.2417 4.44171 17.1083 5.10838 16.9417 5.44171L17.9417 6.94171H18.4417V5.94171L18.9417 5.44171C19.275 4.94171 20.1417 3.44171 20.9417 1.44172C21.3417 0.641721 22.1083 1.10839 22.4417 1.44172H23.4417C23.6083 1.77505 24.0417 3.74172 24.4417 8.94172C24.9417 12.4417 24.4417 7.94171 25.4417 6.44171C26.4417 4.94171 26.4417 5.94171 27.9417 5.94171H28.4417L34.4417 7.94171C36.4417 8.94171 36.9417 9.44171 39.9417 11.4417C42.3417 13.0417 42.9417 13.775 42.9417 13.9417C43.775 15.1084 45.7417 18.0417 46.9417 20.4417L48.4417 23.4417L49.4417 26.4417L49.9417 29.9417L50.4417 33.9417V38.4417V44.4417V50.9417C50.4417 53.9417 49.9417 52.4417 49.4417 52.4417H48.9417H46.4417H44.4417H41.4417H37.6967H33.9417C33.6083 52.6084 32.1417 52.8417 28.9417 52.4417C25.7417 52.0417 25.6083 52.2751 25.9417 52.4417H22.9417H19.4417Z" fill="#171414" stroke="#D40D0D"/>
</svg>
