<svg width="44" height="54" viewBox="0 0 44 54" fill="none" xmlns="http://www.w3.org/2000/svg">
<path d="M6 51.0379H2L1 52.0379V50.5379V45.5379C1 43.5379 1 44.0379 2 43.5379C2.8 43.1379 3.33333 43.7046 3.5 44.0379H5L5.5 42.0379L5 40.5379L6.5 38.5379L7 37.0379L8 36.5379C8.16667 36.2046 8.9 35.2379 10.5 34.0379C10.9 33.6379 10.6667 33.2046 10.5 33.0379V32.0379C10.6667 31.5379 11 30.1379 11 28.5379V24.5379V23.0379C11 21.5379 10.7 18.0379 9.5 16.0379C8.7 15.2379 8.5 14.7046 8.5 14.5379C8 14.3713 6.8 13.8379 6 13.0379C5.2 12.2379 5 12.7046 5 13.0379L4.5 12.5379V10.5379V6.53793C4.5 4.03793 4 4.03794 4.5 2.03794C4.54983 1.83861 4.58984 1.67343 4.62136 1.53794H4.5C4.6459 1.10023 4.8429 0.585887 4.62136 1.53794H6H7.5H9.5H10.5C10.8333 1.53794 11.6 1.93794 12 3.53794C12.2373 4.48696 12.2517 4.89654 12.1894 5.03794H13.5H17C18 5.03794 18 5.03794 18 3.53794C18 2.33794 18.3333 2.03794 18.5 2.03794H22C24 2.03794 26.5 1.53794 26.5 3.03794V5.53794H27H28C28.5 5.53794 29.9 5.43794 31.5 5.03794C32.449 4.80069 32.8586 4.78625 33 4.84855V4.53794V3.53794V2.53794V2.03794L34 1.53794H39.5C41.1 1.53794 40.5 2.20461 40 2.53794V11.0379C40 13.0379 39.6667 12.8713 39.5 12.5379L39 13.5379L37.5 14.5379C37 14.8713 35.5 16.0379 33.5 18.0379C32.3 18.8379 32.6667 19.3713 33 19.5379L32.5 21.5379C32.6667 23.7046 33 28.7379 33 31.5379C33 34.3379 33.6667 34.3713 34 34.0379C34.3333 34.3713 35.7 35.6379 38.5 38.0379C40 39.5379 39 40.5379 42 43.5379C43.6 43.5379 43 44.2046 42.5 44.5379C42.5 45.0379 42.6 46.6379 43 49.0379C43.4 50.2379 42.8333 50.8713 42.5 51.0379L41.5 50.5379L38 51.0379H33.5H23.5H18H10H6Z" fill="#C8D3F8"/>
<path d="M2 51.0379H6C6.16667 51.0379 7.2 51.0379 10 51.0379C12.8 51.0379 16.5 51.0379 18 51.0379C18 51.0379 19.1 51.0379 23.5 51.0379C27.9 51.0379 32 51.0379 33.5 51.0379H38L41.5 50.5379L42.5 51.0379C42.8333 50.8713 43.4 50.2379 43 49.0379C42.6 46.6379 42.5 45.0379 42.5 44.5379C43 44.2046 43.6 43.5379 42 43.5379C39 40.5379 40 39.5379 38.5 38.0379C35.7 35.6379 34.3333 34.3713 34 34.0379C33.6667 34.3713 33 34.3379 33 31.5379C33 28.7379 32.6667 23.7046 32.5 21.5379L33 19.5379C32.6667 19.3713 32.3 18.8379 33.5 18.0379C35.5 16.0379 37 14.8713 37.5 14.5379L39 13.5379L39.5 12.5379C39.6667 12.8713 40 13.0379 40 11.0379C40 6.63794 40 3.53794 40 2.53794C40.5 2.20461 41.1 1.53794 39.5 1.53794C36.3 1.53794 34.5 1.53794 34 1.53794L33 2.03794V2.53794V3.53794V4.53794V5.03794C33.1667 4.87128 33.1 4.63794 31.5 5.03794C29.9 5.43794 28.5 5.53794 28 5.53794H27H26.5C26.5 5.20461 26.5 4.23794 26.5 3.03794C26.5 1.53794 24 2.03794 22 2.03794C20.4 2.03794 19 2.03794 18.5 2.03794C18.3333 2.03794 18 2.33794 18 3.53794C18 5.03794 18 5.03794 17 5.03794C16.2 5.03794 14.3333 5.03794 13.5 5.03794H12C12.1667 5.20461 12.4 5.13794 12 3.53794C11.6 1.93794 10.8333 1.53794 10.5 1.53794H9.5H7.5H6H4.5C4.66667 1.03794 4.9 0.437943 4.5 2.03794C4 4.03794 4.5 4.03793 4.5 6.53793C4.5 8.53793 4.5 10.0379 4.5 10.5379V12.5379L5 13.0379C5 12.7046 5.2 12.2379 6 13.0379C6.8 13.8379 8 14.3713 8.5 14.5379C8.5 14.7046 8.7 15.2379 9.5 16.0379C10.7 18.0379 11 21.5379 11 23.0379V24.5379C11 25.2046 11 26.9379 11 28.5379C11 30.1379 10.6667 31.5379 10.5 32.0379V33.0379C10.6667 33.2046 10.9 33.6379 10.5 34.0379C8.9 35.2379 8.16667 36.2046 8 36.5379L7 37.0379L6.5 38.5379L5 40.5379L5.5 42.0379L5 44.0379H3.5C3.33333 43.7046 2.8 43.1379 2 43.5379C1 44.0379 1 43.5379 1 45.5379C1 47.1379 1 49.5379 1 50.5379V52.0379L2 51.0379Z" stroke="#DE0D0D"/>
</svg>
