<svg width="55" height="54" viewBox="0 0 55 54" fill="none" xmlns="http://www.w3.org/2000/svg">
<path d="M9.94172 50L10.0093 50.0312C10.1515 49.7892 10.5458 48.5839 11.4417 45C12.9417 42 11.4417 41 9.94172 37.3981C8.44172 33.7961 8.44171 36 3.94171 32.5C1.54171 31.7 1.27505 29.8333 1.44172 29C1.10839 27.8333 0.641721 24.8 1.44172 22C2.44172 18.5 2.94172 17.5 11.4417 14.5C15.9417 13 16.4417 17.5 20.4417 19.5C24.4417 21.5 22.4417 18.5 22.4417 16C22.4417 13.5 22.4417 14.5 25.4417 9.49999C27.8417 7.49999 28.1084 8.66666 27.9417 9.49999L31.9417 12L32.9417 17.5L36.4417 16L41.4417 14.5H46.4417L51.9417 17.5L54.4417 22C54.1084 24.1667 52.3417 29.5 47.9417 33.5C43.5417 37.5 43.4417 38.1667 43.9417 38V43.5L45.4417 47C45.2751 48 42.7417 50.6 33.9417 53C27.4417 54 28.4417 53 22.4417 53H16.4417L10.0093 50.0312C9.96098 50.1133 9.94172 50.0844 9.94172 50Z" fill="#C8D3F8"/>
<path d="M9.94172 50L16.4417 53C16.4417 53 17.6417 53 22.4417 53C28.4417 53 27.4417 54 33.9417 53C42.7417 50.6 45.2751 48 45.4417 47L43.9417 43.5V38C43.4417 38.1667 43.5417 37.5 47.9417 33.5C52.3417 29.5 54.1084 24.1667 54.4417 22L51.9417 17.5L46.4417 14.5H41.4417L36.4417 16L32.9417 17.5L31.9417 12L27.9417 9.49999C28.1084 8.66666 27.8417 7.49999 25.4417 9.49999C22.4417 14.5 22.4417 13.5 22.4417 16C22.4417 18.5 24.4417 21.5 20.4417 19.5C16.4417 17.5 15.9417 13 11.4417 14.5C2.94172 17.5 2.44172 18.5 1.44172 22C0.641721 24.8 1.10839 27.8333 1.44172 29C1.27505 29.8333 1.54171 31.7 3.94171 32.5C8.44171 36 8.44172 33.7961 9.94172 37.3981C11.4417 41 12.9417 42 11.4417 45C10.2417 49.8 9.94172 50.3333 9.94172 50Z" stroke="#D40D0D"/>
<path d="M22.9417 3.5H30.9417" stroke="#D40D0D"/>
<path d="M27.4417 8V0" stroke="#D40D0D"/>
</svg>
